<?xml version="1.0" encoding="UTF-8"?>
<!DOCTYPE svg
PUBLIC "-//W3C//DTD SVG 1.1//EN"
       "http://www.w3.org/Graphics/SVG/1.1/DTD/svg11.dtd">
<svg viewBox="61 4 815 595" width="754px" height="591px" xmlns="http://www.w3.org/2000/svg" version="1.1">
   <line x1="716" y1="281" x2="706" y2="281" style="stroke:#0b0;stroke-width:1;"/>
   <line x1="435" y1="318" x2="425" y2="318" style="stroke:#0b0;stroke-width:1;"/>
   <line x1="706" y1="281" x2="435" y2="318" style="stroke:#0b0;stroke-width:1;"/>
   <line x1="708.5" y1="281" x2="712.03553390593" y2="284.53553390593" style="stroke:#0b0;stroke-width:2;"/>
   <line x1="708.5" y1="281" x2="712.03553390593" y2="277.46446609407" style="stroke:#0b0;stroke-width:2;"/>
   <line x1="430" y1="318" x2="433.53553390593" y2="321.53553390593" style="stroke:#0b0;stroke-width:2;"/>
   <line x1="430" y1="318" x2="433.53553390593" y2="314.46446609407" style="stroke:#0b0;stroke-width:2;"/>
   <line x1="296" y1="530" x2="306" y2="530" style="stroke:#c00;stroke-width:1;"/>
   <line x1="706" y1="221" x2="716" y2="221" style="stroke:#c00;stroke-width:1;"/>
   <line x1="306" y1="530" x2="706" y2="221" style="stroke:#c00;stroke-width:1;"/>
   <line x1="303.5" y1="530" x2="299.96446609407" y2="533.53553390593" style="stroke:#c00;stroke-width:2;"/>
   <line x1="303.5" y1="530" x2="299.96446609407" y2="526.46446609407" style="stroke:#c00;stroke-width:2;"/>
   <line x1="711" y1="221" x2="707.46446609407" y2="224.53553390593" style="stroke:#c00;stroke-width:2;"/>
   <line x1="711" y1="221" x2="707.46446609407" y2="217.46446609407" style="stroke:#c00;stroke-width:2;"/>
   <line x1="296" y1="550" x2="306" y2="550" style="stroke:#b0b;stroke-width:1;"/>
   <line x1="367" y1="318" x2="377" y2="318" style="stroke:#b0b;stroke-width:1;"/>
   <line x1="306" y1="550" x2="367" y2="318" style="stroke:#b0b;stroke-width:1;"/>
   <line x1="303.5" y1="550" x2="299.96446609407" y2="553.53553390593" style="stroke:#b0b;stroke-width:2;"/>
   <line x1="303.5" y1="550" x2="299.96446609407" y2="546.46446609407" style="stroke:#b0b;stroke-width:2;"/>
   <line x1="372" y1="318" x2="368.46446609407" y2="321.53553390593" style="stroke:#b0b;stroke-width:2;"/>
   <line x1="372" y1="318" x2="368.46446609407" y2="314.46446609407" style="stroke:#b0b;stroke-width:2;"/>
   <line x1="670" y1="398" x2="660" y2="398" style="stroke:#bbb;stroke-width:1;"/>
   <line x1="435" y1="318" x2="425" y2="318" style="stroke:#bbb;stroke-width:1;"/>
   <line x1="660" y1="398" x2="435" y2="318" style="stroke:#bbb;stroke-width:1;"/>
   <line x1="662.5" y1="398" x2="666.03553390593" y2="401.53553390593" style="stroke:#bbb;stroke-width:2;"/>
   <line x1="662.5" y1="398" x2="666.03553390593" y2="394.46446609407" style="stroke:#bbb;stroke-width:2;"/>
   <line x1="430" y1="318" x2="433.53553390593" y2="321.53553390593" style="stroke:#bbb;stroke-width:2;"/>
   <line x1="430" y1="318" x2="433.53553390593" y2="314.46446609407" style="stroke:#bbb;stroke-width:2;"/>
   <line x1="670" y1="398" x2="660" y2="398" style="stroke:#333;stroke-width:1;"/>
   <line x1="435" y1="318" x2="425" y2="318" style="stroke:#333;stroke-width:1;"/>
   <line x1="660" y1="398" x2="435" y2="318" style="stroke:#333;stroke-width:1;"/>
   <line x1="662.5" y1="398" x2="666.03553390593" y2="401.53553390593" style="stroke:#333;stroke-width:2;"/>
   <line x1="662.5" y1="398" x2="666.03553390593" y2="394.46446609407" style="stroke:#333;stroke-width:2;"/>
   <line x1="430" y1="318" x2="433.53553390593" y2="321.53553390593" style="stroke:#333;stroke-width:2;"/>
   <line x1="430" y1="318" x2="433.53553390593" y2="314.46446609407" style="stroke:#333;stroke-width:2;"/>
   <line x1="670" y1="398" x2="660" y2="398" style="stroke:#cb0;stroke-width:1;"/>
   <line x1="435" y1="318" x2="425" y2="318" style="stroke:#cb0;stroke-width:1;"/>
   <line x1="660" y1="398" x2="435" y2="318" style="stroke:#cb0;stroke-width:1;"/>
   <line x1="662.5" y1="398" x2="666.03553390593" y2="401.53553390593" style="stroke:#cb0;stroke-width:2;"/>
   <line x1="662.5" y1="398" x2="666.03553390593" y2="394.46446609407" style="stroke:#cb0;stroke-width:2;"/>
   <line x1="430" y1="318" x2="433.53553390593" y2="321.53553390593" style="stroke:#cb0;stroke-width:2;"/>
   <line x1="430" y1="318" x2="433.53553390593" y2="314.46446609407" style="stroke:#cb0;stroke-width:2;"/>
   <line x1="472" y1="156" x2="482" y2="156" style="stroke:#0b0;stroke-width:1;"/>
   <line x1="660" y1="338" x2="670" y2="338" style="stroke:#0b0;stroke-width:1;"/>
   <line x1="482" y1="156" x2="660" y2="338" style="stroke:#0b0;stroke-width:1;"/>
   <line x1="479.5" y1="156" x2="475.96446609407" y2="159.53553390593" style="stroke:#0b0;stroke-width:2;"/>
   <line x1="479.5" y1="156" x2="475.96446609407" y2="152.46446609407" style="stroke:#0b0;stroke-width:2;"/>
   <line x1="665" y1="338" x2="661.46446609407" y2="341.53553390593" style="stroke:#0b0;stroke-width:2;"/>
   <line x1="665" y1="338" x2="661.46446609407" y2="334.46446609407" style="stroke:#0b0;stroke-width:2;"/>
   <line x1="358" y1="176" x2="348" y2="176" style="stroke:#bbb;stroke-width:1;"/>
   <line x1="367" y1="318" x2="377" y2="318" style="stroke:#bbb;stroke-width:1;"/>
   <line x1="348" y1="176" x2="367" y2="318" style="stroke:#bbb;stroke-width:1;"/>
   <line x1="350.5" y1="176" x2="354.03553390593" y2="179.53553390593" style="stroke:#bbb;stroke-width:2;"/>
   <line x1="350.5" y1="176" x2="354.03553390593" y2="172.46446609407" style="stroke:#bbb;stroke-width:2;"/>
   <line x1="372" y1="318" x2="368.46446609407" y2="321.53553390593" style="stroke:#bbb;stroke-width:2;"/>
   <line x1="372" y1="318" x2="368.46446609407" y2="314.46446609407" style="stroke:#bbb;stroke-width:2;"/>
   <line x1="753" y1="474" x2="763" y2="474" style="stroke:#c00;stroke-width:1;"/>
   <line x1="764" y1="338" x2="754" y2="338" style="stroke:#c00;stroke-width:1;"/>
   <line x1="763" y1="474" x2="764" y2="338" style="stroke:#c00;stroke-width:1;"/>
   <line x1="760.5" y1="474" x2="756.96446609407" y2="477.53553390593" style="stroke:#c00;stroke-width:2;"/>
   <line x1="760.5" y1="474" x2="756.96446609407" y2="470.46446609407" style="stroke:#c00;stroke-width:2;"/>
   <line x1="759" y1="338" x2="762.53553390593" y2="341.53553390593" style="stroke:#c00;stroke-width:2;"/>
   <line x1="759" y1="338" x2="762.53553390593" y2="334.46446609407" style="stroke:#c00;stroke-width:2;"/>
   <line x1="625" y1="494" x2="615" y2="494" style="stroke:#333;stroke-width:1;"/>
   <line x1="435" y1="318" x2="425" y2="318" style="stroke:#333;stroke-width:1;"/>
   <line x1="615" y1="494" x2="435" y2="318" style="stroke:#333;stroke-width:1;"/>
   <line x1="617.5" y1="494" x2="621.03553390593" y2="497.53553390593" style="stroke:#333;stroke-width:2;"/>
   <line x1="617.5" y1="494" x2="621.03553390593" y2="490.46446609407" style="stroke:#333;stroke-width:2;"/>
   <line x1="430" y1="318" x2="433.53553390593" y2="321.53553390593" style="stroke:#333;stroke-width:2;"/>
   <line x1="430" y1="318" x2="433.53553390593" y2="314.46446609407" style="stroke:#333;stroke-width:2;"/>
   <line x1="625" y1="534" x2="615" y2="534" style="stroke:#bbb;stroke-width:1;"/>
   <line x1="435" y1="318" x2="425" y2="318" style="stroke:#bbb;stroke-width:1;"/>
   <line x1="615" y1="534" x2="435" y2="318" style="stroke:#bbb;stroke-width:1;"/>
   <line x1="617.5" y1="534" x2="621.03553390593" y2="537.53553390593" style="stroke:#bbb;stroke-width:2;"/>
   <line x1="617.5" y1="534" x2="621.03553390593" y2="530.46446609407" style="stroke:#bbb;stroke-width:2;"/>
   <line x1="430" y1="318" x2="433.53553390593" y2="321.53553390593" style="stroke:#bbb;stroke-width:2;"/>
   <line x1="430" y1="318" x2="433.53553390593" y2="314.46446609407" style="stroke:#bbb;stroke-width:2;"/>
   <line x1="483" y1="550" x2="473" y2="550" style="stroke:#0b0;stroke-width:1;"/>
   <line x1="435" y1="318" x2="425" y2="318" style="stroke:#0b0;stroke-width:1;"/>
   <line x1="473" y1="550" x2="435" y2="318" style="stroke:#0b0;stroke-width:1;"/>
   <line x1="475.5" y1="550" x2="479.03553390593" y2="553.53553390593" style="stroke:#0b0;stroke-width:2;"/>
   <line x1="475.5" y1="550" x2="479.03553390593" y2="546.46446609407" style="stroke:#0b0;stroke-width:2;"/>
   <line x1="430" y1="318" x2="433.53553390593" y2="321.53553390593" style="stroke:#0b0;stroke-width:2;"/>
   <line x1="430" y1="318" x2="433.53553390593" y2="314.46446609407" style="stroke:#0b0;stroke-width:2;"/>
   <line x1="626" y1="570" x2="636" y2="570" style="stroke:#333;stroke-width:1;"/>
   <line x1="660" y1="338" x2="670" y2="338" style="stroke:#333;stroke-width:1;"/>
   <line x1="636" y1="570" x2="660" y2="338" style="stroke:#333;stroke-width:1;"/>
   <line x1="633.5" y1="570" x2="629.96446609407" y2="573.53553390593" style="stroke:#333;stroke-width:2;"/>
   <line x1="633.5" y1="570" x2="629.96446609407" y2="566.46446609407" style="stroke:#333;stroke-width:2;"/>
   <line x1="665" y1="338" x2="661.46446609407" y2="341.53553390593" style="stroke:#333;stroke-width:2;"/>
   <line x1="665" y1="338" x2="661.46446609407" y2="334.46446609407" style="stroke:#333;stroke-width:2;"/>
   <line x1="207" y1="262" x2="217" y2="262" style="stroke:#333;stroke-width:1;"/>
   <line x1="367" y1="318" x2="377" y2="318" style="stroke:#333;stroke-width:1;"/>
   <line x1="217" y1="262" x2="367" y2="318" style="stroke:#333;stroke-width:1;"/>
   <line x1="214.5" y1="262" x2="210.96446609407" y2="265.53553390593" style="stroke:#333;stroke-width:2;"/>
   <line x1="214.5" y1="262" x2="210.96446609407" y2="258.46446609407" style="stroke:#333;stroke-width:2;"/>
   <line x1="372" y1="318" x2="368.46446609407" y2="321.53553390593" style="stroke:#333;stroke-width:2;"/>
   <line x1="372" y1="318" x2="368.46446609407" y2="314.46446609407" style="stroke:#333;stroke-width:2;"/>
   <line x1="171" y1="368" x2="181" y2="368" style="stroke:#c00;stroke-width:1;"/>
   <line x1="367" y1="318" x2="377" y2="318" style="stroke:#c00;stroke-width:1;"/>
   <line x1="181" y1="368" x2="367" y2="318" style="stroke:#c00;stroke-width:1;"/>
   <line x1="178.5" y1="368" x2="174.96446609407" y2="371.53553390593" style="stroke:#c00;stroke-width:2;"/>
   <line x1="178.5" y1="368" x2="174.96446609407" y2="364.46446609407" style="stroke:#c00;stroke-width:2;"/>
   <line x1="372" y1="318" x2="368.46446609407" y2="321.53553390593" style="stroke:#c00;stroke-width:2;"/>
   <line x1="372" y1="318" x2="368.46446609407" y2="314.46446609407" style="stroke:#c00;stroke-width:2;"/>
   <line x1="387" y1="248" x2="377" y2="248" style="stroke:#bbb;stroke-width:1;"/>
   <line x1="367" y1="318" x2="377" y2="318" style="stroke:#bbb;stroke-width:1;"/>
   <line x1="377" y1="248" x2="367" y2="318" style="stroke:#bbb;stroke-width:1;"/>
   <line x1="379.5" y1="248" x2="383.03553390593" y2="251.53553390593" style="stroke:#bbb;stroke-width:2;"/>
   <line x1="379.5" y1="248" x2="383.03553390593" y2="244.46446609407" style="stroke:#bbb;stroke-width:2;"/>
   <line x1="372" y1="318" x2="368.46446609407" y2="321.53553390593" style="stroke:#bbb;stroke-width:2;"/>
   <line x1="372" y1="318" x2="368.46446609407" y2="314.46446609407" style="stroke:#bbb;stroke-width:2;"/>
   <line x1="491" y1="268" x2="501" y2="268" style="stroke:#0b0;stroke-width:1;"/>
   <line x1="706" y1="221" x2="716" y2="221" style="stroke:#0b0;stroke-width:1;"/>
   <line x1="501" y1="268" x2="706" y2="221" style="stroke:#0b0;stroke-width:1;"/>
   <line x1="498.5" y1="268" x2="494.96446609407" y2="271.53553390593" style="stroke:#0b0;stroke-width:2;"/>
   <line x1="498.5" y1="268" x2="494.96446609407" y2="264.46446609407" style="stroke:#0b0;stroke-width:2;"/>
   <line x1="711" y1="221" x2="707.46446609407" y2="224.53553390593" style="stroke:#0b0;stroke-width:2;"/>
   <line x1="711" y1="221" x2="707.46446609407" y2="217.46446609407" style="stroke:#0b0;stroke-width:2;"/>
   <line x1="263" y1="460" x2="273" y2="460" style="stroke:#333;stroke-width:1;"/>
   <line x1="367" y1="318" x2="377" y2="318" style="stroke:#333;stroke-width:1;"/>
   <line x1="273" y1="460" x2="367" y2="318" style="stroke:#333;stroke-width:1;"/>
   <line x1="270.5" y1="460" x2="266.96446609407" y2="463.53553390593" style="stroke:#333;stroke-width:2;"/>
   <line x1="270.5" y1="460" x2="266.96446609407" y2="456.46446609407" style="stroke:#333;stroke-width:2;"/>
   <line x1="372" y1="318" x2="368.46446609407" y2="321.53553390593" style="stroke:#333;stroke-width:2;"/>
   <line x1="372" y1="318" x2="368.46446609407" y2="314.46446609407" style="stroke:#333;stroke-width:2;"/>
   <rect width="84" height="20" x="716" y="191" style="fill:#007;stroke:black;"/>
   <text width="84" height="20" x="721" y="205" style="fill:#fff;" font-family="Arial" font-size="16px"> books</text>
   <rect width="84" height="20" x="716" y="211" style="fill:#aea;stroke:black;"/>
   <text width="84" height="20" x="721" y="225" style="fill:black;" font-family="Arial" font-size="16px">id</text>
   <rect width="84" height="20" x="716" y="231" style="fill:none;stroke:black;"/>
   <text width="84" height="20" x="721" y="245" style="fill:black;" font-family="Arial" font-size="16px">user_id</text>
   <rect width="84" height="20" x="716" y="251" style="fill:none;stroke:black;"/>
   <text width="84" height="20" x="721" y="265" style="fill:black;" font-family="Arial" font-size="16px">is_deleted</text>
   <rect width="84" height="20" x="716" y="271" style="fill:none;stroke:black;"/>
   <text width="84" height="20" x="721" y="285" style="fill:black;" font-family="Arial" font-size="16px">deleted_by</text>
   <rect width="83" height="20" x="213" y="480" style="fill:#007;stroke:black;"/>
   <text width="83" height="20" x="218" y="494" style="fill:#fff;" font-family="Arial" font-size="16px"> book_likes</text>
   <rect width="83" height="20" x="213" y="500" style="fill:#aea;stroke:black;"/>
   <text width="83" height="20" x="218" y="514" style="fill:black;" font-family="Arial" font-size="16px">id</text>
   <rect width="83" height="20" x="213" y="520" style="fill:none;stroke:black;"/>
   <text width="83" height="20" x="218" y="534" style="fill:black;" font-family="Arial" font-size="16px">book_id</text>
   <rect width="83" height="20" x="213" y="540" style="fill:none;stroke:black;"/>
   <text width="83" height="20" x="218" y="554" style="fill:black;" font-family="Arial" font-size="16px">user_id</text>
   <rect width="84" height="20" x="670" y="308" style="fill:#007;stroke:black;"/>
   <text width="84" height="20" x="675" y="322" style="fill:#fff;" font-family="Arial" font-size="16px"> comments</text>
   <rect width="84" height="20" x="670" y="328" style="fill:#aea;stroke:black;"/>
   <text width="84" height="20" x="675" y="342" style="fill:black;" font-family="Arial" font-size="16px">id</text>
   <rect width="84" height="20" x="670" y="348" style="fill:none;stroke:black;"/>
   <text width="84" height="20" x="675" y="362" style="fill:black;" font-family="Arial" font-size="16px">book_id</text>
   <rect width="84" height="20" x="670" y="368" style="fill:none;stroke:black;"/>
   <text width="84" height="20" x="675" y="382" style="fill:black;" font-family="Arial" font-size="16px">user_id</text>
   <rect width="84" height="20" x="670" y="388" style="fill:none;stroke:black;"/>
   <text width="84" height="20" x="675" y="402" style="fill:black;" font-family="Arial" font-size="16px">deleted_by</text>
   <rect width="163" height="20" x="80" y="19" style="fill:#007;stroke:black;"/>
   <text width="163" height="20" x="85" y="33" style="fill:#fff;" font-family="Arial" font-size="16px"> comments_with_author</text>
   <rect width="114" height="20" x="358" y="106" style="fill:#007;stroke:black;"/>
   <text width="114" height="20" x="363" y="120" style="fill:#fff;" font-family="Arial" font-size="16px"> comment_likes</text>
   <rect width="114" height="20" x="358" y="126" style="fill:#aea;stroke:black;"/>
   <text width="114" height="20" x="363" y="140" style="fill:black;" font-family="Arial" font-size="16px">id</text>
   <rect width="114" height="20" x="358" y="146" style="fill:none;stroke:black;"/>
   <text width="114" height="20" x="363" y="160" style="fill:black;" font-family="Arial" font-size="16px">comment_id</text>
   <rect width="114" height="20" x="358" y="166" style="fill:none;stroke:black;"/>
   <text width="114" height="20" x="363" y="180" style="fill:black;" font-family="Arial" font-size="16px">user_id</text>
   <rect width="128" height="20" x="625" y="424" style="fill:#007;stroke:black;"/>
   <text width="128" height="20" x="630" y="438" style="fill:#fff;" font-family="Arial" font-size="16px"> comment_reports</text>
   <rect width="128" height="20" x="625" y="444" style="fill:#aea;stroke:black;"/>
   <text width="128" height="20" x="630" y="458" style="fill:black;" font-family="Arial" font-size="16px">id</text>
   <rect width="128" height="20" x="625" y="464" style="fill:none;stroke:black;"/>
   <text width="128" height="20" x="630" y="478" style="fill:black;" font-family="Arial" font-size="16px">comment_id</text>
   <rect width="128" height="20" x="625" y="484" style="fill:none;stroke:black;"/>
   <text width="128" height="20" x="630" y="498" style="fill:black;" font-family="Arial" font-size="16px">user_id</text>
   <rect width="128" height="20" x="625" y="504" style="fill:none;stroke:black;"/>
   <text width="128" height="20" x="630" y="518" style="fill:black;" font-family="Arial" font-size="16px">status</text>
   <rect width="128" height="20" x="625" y="524" style="fill:none;stroke:black;"/>
   <text width="128" height="20" x="630" y="538" style="fill:black;" font-family="Arial" font-size="16px">resolved_by</text>
   <rect width="112" height="20" x="80" y="101" style="fill:#007;stroke:black;"/>
   <text width="112" height="20" x="85" y="115" style="fill:#fff;" font-family="Arial" font-size="16px"> login_attempts</text>
   <rect width="112" height="20" x="80" y="121" style="fill:#aea;stroke:black;"/>
   <text width="112" height="20" x="85" y="135" style="fill:black;" font-family="Arial" font-size="16px">id</text>
   <rect width="112" height="20" x="80" y="141" style="fill:none;stroke:black;"/>
   <text width="112" height="20" x="85" y="155" style="fill:black;" font-family="Arial" font-size="16px">ip_address</text>
   <rect width="112" height="20" x="80" y="161" style="fill:none;stroke:black;"/>
   <text width="112" height="20" x="85" y="175" style="fill:black;" font-family="Arial" font-size="16px">email</text>
   <rect width="112" height="20" x="80" y="181" style="fill:none;stroke:black;"/>
   <text width="112" height="20" x="85" y="195" style="fill:black;" font-family="Arial" font-size="16px">is_locked</text>
   <rect width="112" height="20" x="80" y="201" style="fill:none;stroke:black;"/>
   <text width="112" height="20" x="85" y="215" style="fill:black;" font-family="Arial" font-size="16px">lock_until</text>
   <rect width="143" height="20" x="483" y="500" style="fill:#007;stroke:black;"/>
   <text width="143" height="20" x="488" y="514" style="fill:#fff;" font-family="Arial" font-size="16px"> moderation_actions</text>
   <rect width="143" height="20" x="483" y="520" style="fill:#aea;stroke:black;"/>
   <text width="143" height="20" x="488" y="534" style="fill:black;" font-family="Arial" font-size="16px">id</text>
   <rect width="143" height="20" x="483" y="540" style="fill:none;stroke:black;"/>
   <text width="143" height="20" x="488" y="554" style="fill:black;" font-family="Arial" font-size="16px">moderator_id</text>
   <rect width="143" height="20" x="483" y="560" style="fill:none;stroke:black;"/>
   <text width="143" height="20" x="488" y="574" style="fill:black;" font-family="Arial" font-size="16px">comment_id</text>
   <rect width="123" height="20" x="84" y="212" style="fill:#007;stroke:black;"/>
   <text width="123" height="20" x="89" y="226" style="fill:#fff;" font-family="Arial" font-size="16px"> moderation_logs</text>
   <rect width="123" height="20" x="84" y="232" style="fill:#aea;stroke:black;"/>
   <text width="123" height="20" x="89" y="246" style="fill:black;" font-family="Arial" font-size="16px">id</text>
   <rect width="123" height="20" x="84" y="252" style="fill:none;stroke:black;"/>
   <text width="123" height="20" x="89" y="266" style="fill:black;" font-family="Arial" font-size="16px">user_id</text>
   <rect width="123" height="20" x="84" y="272" style="fill:none;stroke:black;"/>
   <text width="123" height="20" x="89" y="286" style="fill:black;" font-family="Arial" font-size="16px">action_type</text>
   <rect width="123" height="20" x="84" y="292" style="fill:none;stroke:black;"/>
   <text width="123" height="20" x="89" y="306" style="fill:black;" font-family="Arial" font-size="16px">entity_type</text>
   <rect width="123" height="20" x="84" y="312" style="fill:none;stroke:black;"/>
   <text width="123" height="20" x="89" y="326" style="fill:black;" font-family="Arial" font-size="16px">entity_id</text>
   <rect width="123" height="20" x="84" y="332" style="fill:none;stroke:black;"/>
   <text width="123" height="20" x="89" y="346" style="fill:black;" font-family="Arial" font-size="16px">created_at</text>
   <rect width="95" height="20" x="76" y="318" style="fill:#007;stroke:black;"/>
   <text width="95" height="20" x="81" y="332" style="fill:#fff;" font-family="Arial" font-size="16px"> notifications</text>
   <rect width="95" height="20" x="76" y="338" style="fill:#aea;stroke:black;"/>
   <text width="95" height="20" x="81" y="352" style="fill:black;" font-family="Arial" font-size="16px">id</text>
   <rect width="95" height="20" x="76" y="358" style="fill:none;stroke:black;"/>
   <text width="95" height="20" x="81" y="372" style="fill:black;" font-family="Arial" font-size="16px">user_id</text>
   <rect width="95" height="20" x="76" y="378" style="fill:none;stroke:black;"/>
   <text width="95" height="20" x="81" y="392" style="fill:black;" font-family="Arial" font-size="16px">is_read</text>
   <rect width="95" height="20" x="76" y="398" style="fill:none;stroke:black;"/>
   <text width="95" height="20" x="81" y="412" style="fill:black;" font-family="Arial" font-size="16px">created_at</text>
   <rect width="129" height="20" x="80" y="61" style="fill:#007;stroke:black;"/>
   <text width="129" height="20" x="85" y="75" style="fill:#fff;" font-family="Arial" font-size="16px"> password_resets</text>
   <rect width="129" height="20" x="80" y="81" style="fill:#aea;stroke:black;"/>
   <text width="129" height="20" x="85" y="95" style="fill:black;" font-family="Arial" font-size="16px">id</text>
   <rect width="129" height="20" x="80" y="101" style="fill:none;stroke:black;"/>
   <text width="129" height="20" x="85" y="115" style="fill:black;" font-family="Arial" font-size="16px">email</text>
   <rect width="129" height="20" x="80" y="121" style="fill:none;stroke:black;"/>
   <text width="129" height="20" x="85" y="135" style="fill:black;" font-family="Arial" font-size="16px">token</text>
   <rect width="129" height="20" x="80" y="141" style="fill:none;stroke:black;"/>
   <text width="129" height="20" x="85" y="155" style="fill:black;" font-family="Arial" font-size="16px">expires_at</text>
   <rect width="48" height="20" x="377" y="288" style="fill:#007;stroke:black;"/>
   <text width="48" height="20" x="382" y="302" style="fill:#fff;" font-family="Arial" font-size="16px"> users</text>
   <rect width="48" height="20" x="377" y="308" style="fill:#aea;stroke:black;"/>
   <text width="48" height="20" x="382" y="322" style="fill:black;" font-family="Arial" font-size="16px">id</text>
   <rect width="48" height="20" x="377" y="328" style="fill:none;stroke:black;"/>
   <text width="48" height="20" x="382" y="342" style="fill:black;" font-family="Arial" font-size="16px">email</text>
   <rect width="104" height="20" x="387" y="198" style="fill:#007;stroke:black;"/>
   <text width="104" height="20" x="392" y="212" style="fill:#fff;" font-family="Arial" font-size="16px"> user_favorites</text>
   <rect width="104" height="20" x="387" y="218" style="fill:#aea;stroke:black;"/>
   <text width="104" height="20" x="392" y="232" style="fill:black;" font-family="Arial" font-size="16px">id</text>
   <rect width="104" height="20" x="387" y="238" style="fill:none;stroke:black;"/>
   <text width="104" height="20" x="392" y="252" style="fill:black;" font-family="Arial" font-size="16px">user_id</text>
   <rect width="104" height="20" x="387" y="258" style="fill:none;stroke:black;"/>
   <text width="104" height="20" x="392" y="272" style="fill:black;" font-family="Arial" font-size="16px">book_id</text>
   <rect width="93" height="20" x="170" y="410" style="fill:#007;stroke:black;"/>
   <text width="93" height="20" x="175" y="424" style="fill:#fff;" font-family="Arial" font-size="16px"> user_tokens</text>
   <rect width="93" height="20" x="170" y="430" style="fill:#aea;stroke:black;"/>
   <text width="93" height="20" x="175" y="444" style="fill:black;" font-family="Arial" font-size="16px">id</text>
   <rect width="93" height="20" x="170" y="450" style="fill:none;stroke:black;"/>
   <text width="93" height="20" x="175" y="464" style="fill:black;" font-family="Arial" font-size="16px">user_id</text>
</svg>
